<svg width="176" height="33" viewBox="0 0 176 33" xmlns="http://www.w3.org/2000/svg"><title>logo</title><g fill="none" fill-rule="evenodd"><g fill="#FFF"><path d="M1.422 20.994c1.084.993 2.642 1.884 4.132 1.884 1.083 0 2.302-.48 2.302-1.78 0-1.44-1.66-1.68-3.522-2.503-2.1-.925-3.86-2.056-3.86-4.763 0-3.53 2.81-5.037 6.298-5.037 1.896 0 3.928.445 5.384 1.404v.41l-1.354 2.707c-.948-.72-2.235-1.2-3.657-1.2-1.253 0-2.032.515-2.032 1.508 0 1.303 1.49 1.577 3.352 2.296 2.574.994 4.13 2.09 4.13 4.866 0 3.632-2.81 5.21-6.534 5.21-2.37 0-4.266-.652-6.06-2.023v-.41l1.422-2.57zM21.436 25.997c-5.52 0-7.755-3.872-7.755-8.703 0-4.763 2.067-8.498 7.52-8.498 5.248 0 7.11 3.427 7.11 7.88 0 .515-.135 1.44-.338 1.99-1.287 0-9.177-.07-9.516-.07.034 1.816.813 4.215 3.522 4.215 1.388 0 2.54-.72 3.556-1.815l1.93 2.193v.41c-1.626 1.44-3.522 2.4-6.028 2.4zm-.238-13.843c-1.66 0-2.607 1.302-2.708 4.01.372 0 5.08-.104 5.25-.104-.002-2.57-.747-3.906-2.542-3.906zM44.496 12.36v13.876c0 4.73-3.522 6.716-7.383 6.716-2.167 0-4.504-.582-6.332-1.68L32 28.225h.406c1.22.822 2.743 1.37 4.2 1.37 1.997 0 3.114-1.028 3.114-2.81 0-.274.102-1.85.17-2.81l-.136-.068c-1.152 1.063-2.54 2.056-4.436 2.056-4.64 0-5.756-4.283-5.756-8.67 0-4.282 1.727-8.497 5.858-8.497 1.83 0 3.285.823 4.504 1.954l.102-.07.338-1.2.373-.342 3.86.103c-.033.344-.1 2.092-.1 3.12zm-4.74 1.37c-.747-.857-1.762-1.37-2.676-1.37-2.27 0-2.54 3.083-2.54 4.934 0 2.02.102 5.413 2.235 5.413.948 0 2.133-.788 2.912-1.78 0-.344.068-6.82.068-7.197zM64.813 25.55c0-.307.136-10.484.136-10.792 0-1.713-.44-2.365-1.49-2.365-.78 0-1.863.446-2.71 1.13v12.028h-4.673c0-.307.068-10.484.068-10.792 0-1.713-.406-2.365-1.388-2.365-.812 0-1.93.48-2.776 1.166l.034 11.99h-4.808V13.457c0-1.166-.068-3.495-.102-4.215L51.1 9.14l.372.343.238 1.338.067.034c1.456-1.2 3.488-2.022 5.215-2.022 1.354 0 2.64.617 3.285 2.09 1.658-1.302 3.793-2.09 5.52-2.09 2.2 0 3.928 1.37 3.928 4.866 0 .343-.102 11.513-.102 11.855h-4.81zM79.442 25.997c-5.52 0-7.754-3.872-7.754-8.703 0-4.763 2.066-8.498 7.517-8.498 5.25 0 7.112 3.427 7.112 7.88 0 .515-.135 1.44-.34 1.99-1.286 0-9.176-.07-9.515-.07.034 1.816.813 4.215 3.522 4.215 1.39 0 2.54-.72 3.556-1.815l1.93 2.193v.41c-1.626 1.44-3.522 2.4-6.028 2.4zm-.237-13.843c-1.66 0-2.608 1.302-2.71 4.01.374 0 5.08-.104 5.25-.104 0-2.57-.745-3.906-2.54-3.906zM97.355 25.55c0-.307.135-10.484.135-10.792 0-1.748-.406-2.365-1.558-2.365-.846 0-2.066.55-2.98 1.166l.034 11.99h-4.81V13.457c0-1.2-.066-3.495-.1-4.215l3.995-.102.374.343.237 1.338.07.034c1.523-1.13 3.724-2.022 5.52-2.022 2.267 0 3.994 1.37 3.994 4.866 0 .343-.102 11.513-.102 11.855h-4.807zM110.29 25.55c-4.232 0-4.537-2.466-4.537-4.864 0-.343 0-4.798.068-8.02-1.048.036-1.726.036-2.064.036l.034-3.46c.34 0 .982 0 2.03.033-.032-1.885-.067-4.317-.067-4.626l.34-.344h4.47c0 .31 0 2.365-.068 4.97 1.185-.035 2.777-.035 3.115-.035l-.067 3.462c-.34 0-1.863 0-3.048-.035.034 3.118.034 7.127.034 7.436 0 1.713.032 2.055 1.522 2.055h1.32l.07 3.05-.34.343h-2.81z"/></g><g fill="#009A61"><path d="M117.62 25.55c0-.342.07-9.662.103-12.883-.915.035-1.863.035-2.134.035l.033-3.46c.27 0 1.185 0 2.066.033 0-.137-.07-2.98-.07-3.084 0-3.87 2.236-5.31 5.148-5.31 1.253 0 2.54.206 3.827.754v.514l-.982 2.74c-.542-.307-1.15-.48-1.693-.48-.948 0-1.558.48-1.558 2.296 0 .617.034 2.433.034 2.57 1.016-.034 2.946-.034 3.216-.034l-.033 3.46c-.272 0-2.203 0-3.218-.033.068 3.22.068 12.54.068 12.883h-4.81zM136.584 25.55l-.34-.342-.405-1.302-.136-.034c-1.457 1.336-3.082 2.124-5.08 2.124-3.623 0-4.266-3.152-4.266-5.002 0-5.277 4.47-5.586 9.143-5.86v-1.062c0-1.507-.98-1.885-2.166-1.885-2.1 0-4.03.686-5.18 1.13l-1.05-2.74v-.41c3.08-1.132 5.755-1.372 7.618-1.372 3.352 0 5.553 1.405 5.553 5.072v7.744c0 1.337.068 3.256.102 3.94h-3.793zm-1.05-7.845c-3.183.068-4.57.103-4.57 2.672 0 1.2.304 2.33 1.59 2.33.813 0 1.93-.445 2.947-1.507 0-.206.07-3.255.07-3.46l-.036-.035zM153.414 25.55l-.34-.342-.406-1.37-.135-.035c-1.794 1.714-3.658 2.193-5.52 2.193-2.472 0-4.267-1.37-4.267-4.865 0-.342.102-11.546.102-11.89h4.47l.34.344c0 .377-.103 10.21-.103 10.656 0 1.233.407 2.398 1.626 2.398 1.017 0 2.37-.685 3.184-1.54l-.068-11.857h4.47l.34.344V21.61c0 1.338.067 3.256.1 3.942h-3.792zM164.554 21.61c0 1.303.07 3.256.136 3.94h-4.808c-.07-.684-.136-2.638-.136-3.94V5.404c0-1.302-.034-3.254-.102-3.94l4.572-.137.338.343v19.94zM172.682 25.55c-4.233 0-4.537-2.466-4.537-4.864 0-.343 0-4.798.068-8.02-1.05.036-1.727.036-2.066.036l.034-3.46c.34 0 .983 0 2.033.033-.034-1.885-.068-4.317-.068-4.626l.34-.344h4.47c0 .31 0 2.365-.07 4.97 1.187-.035 2.778-.035 3.116-.035l-.066 3.462c-.34 0-1.862 0-3.048-.035.034 3.118.034 7.127.034 7.436 0 1.713.034 2.055 1.524 2.055h1.32l.068 3.05-.34.343h-2.81z"/></g></g></svg>